<svg width="190" height="33" viewBox="0 0 190 33" fill="none" xmlns="http://www.w3.org/2000/svg">
<g clip-path="url(#clip0_101_12724)">
<path d="M21.3333 13.8335L29.25 26.5002H13.4167L21.3333 13.8335Z" fill="#CBCAFE"/>
<path d="M17.3297 15.0276L12.625 7.5L0.75 26.5H10.1595L17.3297 15.0276Z" fill="#5765F7"/>
</g>
<path d="M40.977 25V12.547H36.21V9.88H48.6V12.547H43.833V25H40.977ZM53.4374 25V9.88H59.8214C59.9684 9.88 60.1644 9.887 60.4094 9.901C60.6614 9.908 60.8854 9.929 61.0814 9.964C61.9844 10.104 62.7229 10.4015 63.2969 10.8565C63.8779 11.3115 64.3049 11.8855 64.5779 12.5785C64.8509 13.2645 64.9874 14.031 64.9874 14.878C64.9874 16.145 64.6724 17.23 64.0424 18.133C63.4124 19.029 62.4254 19.582 61.0814 19.792L59.8214 19.876H56.2934V25H53.4374ZM61.9634 25L58.9814 18.847L61.9214 18.28L65.1974 25H61.9634ZM56.2934 17.209H59.6954C59.8424 17.209 60.0034 17.202 60.1784 17.188C60.3534 17.174 60.5144 17.146 60.6614 17.104C61.0464 16.999 61.3439 16.824 61.5539 16.579C61.7639 16.327 61.9074 16.0505 61.9844 15.7495C62.0684 15.4415 62.1104 15.151 62.1104 14.878C62.1104 14.605 62.0684 14.318 61.9844 14.017C61.9074 13.709 61.7639 13.4325 61.5539 13.1875C61.3439 12.9355 61.0464 12.757 60.6614 12.652C60.5144 12.61 60.3534 12.582 60.1784 12.568C60.0034 12.554 59.8424 12.547 59.6954 12.547H56.2934V17.209ZM77.1447 25.315C75.6327 25.315 74.3272 24.986 73.2282 24.328C72.1362 23.67 71.2927 22.7495 70.6977 21.5665C70.1097 20.3835 69.8157 19.008 69.8157 17.44C69.8157 15.872 70.1097 14.4965 70.6977 13.3135C71.2927 12.1305 72.1362 11.21 73.2282 10.552C74.3272 9.894 75.6327 9.565 77.1447 9.565C78.6567 9.565 79.9587 9.894 81.0507 10.552C82.1497 11.21 82.9932 12.1305 83.5812 13.3135C84.1762 14.4965 84.4737 15.872 84.4737 17.44C84.4737 19.008 84.1762 20.3835 83.5812 21.5665C82.9932 22.7495 82.1497 23.67 81.0507 24.328C79.9587 24.986 78.6567 25.315 77.1447 25.315ZM77.1447 22.627C78.1037 22.641 78.9017 22.4345 79.5387 22.0075C80.1757 21.5805 80.6517 20.975 80.9667 20.191C81.2887 19.407 81.4497 18.49 81.4497 17.44C81.4497 16.39 81.2887 15.48 80.9667 14.71C80.6517 13.94 80.1757 13.3415 79.5387 12.9145C78.9017 12.4875 78.1037 12.267 77.1447 12.253C76.1857 12.239 75.3877 12.4455 74.7507 12.8725C74.1137 13.2995 73.6342 13.905 73.3122 14.689C72.9972 15.473 72.8397 16.39 72.8397 17.44C72.8397 18.49 72.9972 19.4 73.3122 20.17C73.6342 20.94 74.1137 21.5385 74.7507 21.9655C75.3877 22.3925 76.1857 22.613 77.1447 22.627ZM89.7198 25V9.88H92.6178L99.1908 19.96V9.88H102.089V25H99.1908L92.6178 14.92V25H89.7198ZM113.881 25.315C112.761 25.315 111.749 25.119 110.846 24.727C109.95 24.328 109.212 23.761 108.631 23.026C108.057 22.284 107.693 21.402 107.539 20.38L110.521 19.939C110.731 20.807 111.165 21.4755 111.823 21.9445C112.481 22.4135 113.23 22.648 114.07 22.648C114.539 22.648 114.994 22.5745 115.435 22.4275C115.876 22.2805 116.236 22.0635 116.516 21.7765C116.803 21.4895 116.947 21.136 116.947 20.716C116.947 20.562 116.922 20.415 116.873 20.275C116.831 20.128 116.758 19.9915 116.653 19.8655C116.548 19.7395 116.397 19.6205 116.201 19.5085C116.012 19.3965 115.771 19.295 115.477 19.204L111.55 18.049C111.256 17.965 110.913 17.846 110.521 17.692C110.136 17.538 109.761 17.3175 109.397 17.0305C109.033 16.7435 108.729 16.3655 108.484 15.8965C108.246 15.4205 108.127 14.822 108.127 14.101C108.127 13.086 108.382 12.2425 108.893 11.5705C109.404 10.8985 110.087 10.398 110.941 10.069C111.795 9.74 112.74 9.579 113.776 9.586C114.819 9.6 115.75 9.7785 116.569 10.1215C117.388 10.4645 118.074 10.965 118.627 11.623C119.18 12.274 119.579 13.072 119.824 14.017L116.737 14.542C116.625 14.052 116.418 13.639 116.117 13.303C115.816 12.967 115.456 12.7115 115.036 12.5365C114.623 12.3615 114.189 12.267 113.734 12.253C113.286 12.239 112.862 12.302 112.463 12.442C112.071 12.575 111.749 12.771 111.497 13.03C111.252 13.289 111.13 13.597 111.13 13.954C111.13 14.283 111.231 14.5525 111.434 14.7625C111.637 14.9655 111.893 15.13 112.201 15.256C112.509 15.382 112.824 15.487 113.146 15.571L115.771 16.285C116.163 16.39 116.597 16.53 117.073 16.705C117.549 16.873 118.004 17.111 118.438 17.419C118.879 17.72 119.239 18.119 119.519 18.616C119.806 19.113 119.95 19.743 119.95 20.506C119.95 21.318 119.778 22.0285 119.435 22.6375C119.099 23.2395 118.644 23.74 118.07 24.139C117.496 24.531 116.845 24.825 116.117 25.021C115.396 25.217 114.651 25.315 113.881 25.315ZM125.408 25V9.88H131.792C131.939 9.88 132.135 9.887 132.38 9.901C132.632 9.908 132.856 9.929 133.052 9.964C133.955 10.104 134.693 10.4015 135.267 10.8565C135.848 11.3115 136.275 11.8855 136.548 12.5785C136.821 13.2645 136.958 14.031 136.958 14.878C136.958 15.725 136.818 16.495 136.538 17.188C136.265 17.874 135.838 18.4445 135.257 18.8995C134.683 19.3545 133.948 19.652 133.052 19.792C132.856 19.82 132.632 19.841 132.38 19.855C132.128 19.869 131.932 19.876 131.792 19.876H128.264V25H125.408ZM128.264 17.209H131.666C131.813 17.209 131.974 17.202 132.149 17.188C132.324 17.174 132.485 17.146 132.632 17.104C133.017 16.999 133.314 16.824 133.524 16.579C133.734 16.327 133.878 16.0505 133.955 15.7495C134.039 15.4415 134.081 15.151 134.081 14.878C134.081 14.605 134.039 14.318 133.955 14.017C133.878 13.709 133.734 13.4325 133.524 13.1875C133.314 12.9355 133.017 12.757 132.632 12.652C132.485 12.61 132.324 12.582 132.149 12.568C131.974 12.554 131.813 12.547 131.666 12.547H128.264V17.209ZM148.705 25.315C147.193 25.315 145.887 24.986 144.788 24.328C143.696 23.67 142.853 22.7495 142.258 21.5665C141.67 20.3835 141.376 19.008 141.376 17.44C141.376 15.872 141.67 14.4965 142.258 13.3135C142.853 12.1305 143.696 11.21 144.788 10.552C145.887 9.894 147.193 9.565 148.705 9.565C150.217 9.565 151.519 9.894 152.611 10.552C153.71 11.21 154.553 12.1305 155.141 13.3135C155.736 14.4965 156.034 15.872 156.034 17.44C156.034 19.008 155.736 20.3835 155.141 21.5665C154.553 22.7495 153.71 23.67 152.611 24.328C151.519 24.986 150.217 25.315 148.705 25.315ZM148.705 22.627C149.664 22.641 150.462 22.4345 151.099 22.0075C151.736 21.5805 152.212 20.975 152.527 20.191C152.849 19.407 153.01 18.49 153.01 17.44C153.01 16.39 152.849 15.48 152.527 14.71C152.212 13.94 151.736 13.3415 151.099 12.9145C150.462 12.4875 149.664 12.267 148.705 12.253C147.746 12.239 146.948 12.4455 146.311 12.8725C145.674 13.2995 145.194 13.905 144.872 14.689C144.557 15.473 144.4 16.39 144.4 17.44C144.4 18.49 144.557 19.4 144.872 20.17C145.194 20.94 145.674 21.5385 146.311 21.9655C146.948 22.3925 147.746 22.613 148.705 22.627ZM161.28 25V9.88H167.664C167.811 9.88 168.007 9.887 168.252 9.901C168.504 9.908 168.728 9.929 168.924 9.964C169.827 10.104 170.565 10.4015 171.139 10.8565C171.72 11.3115 172.147 11.8855 172.42 12.5785C172.693 13.2645 172.83 14.031 172.83 14.878C172.83 16.145 172.515 17.23 171.885 18.133C171.255 19.029 170.268 19.582 168.924 19.792L167.664 19.876H164.136V25H161.28ZM169.806 25L166.824 18.847L169.764 18.28L173.04 25H169.806ZM164.136 17.209H167.538C167.685 17.209 167.846 17.202 168.021 17.188C168.196 17.174 168.357 17.146 168.504 17.104C168.889 16.999 169.186 16.824 169.396 16.579C169.606 16.327 169.75 16.0505 169.827 15.7495C169.911 15.4415 169.953 15.151 169.953 14.878C169.953 14.605 169.911 14.318 169.827 14.017C169.75 13.709 169.606 13.4325 169.396 13.1875C169.186 12.9355 168.889 12.757 168.504 12.652C168.357 12.61 168.196 12.582 168.021 12.568C167.846 12.554 167.685 12.547 167.538 12.547H164.136V17.209ZM182.005 25V12.547H177.238V9.88H189.628V12.547H184.861V25H182.005Z" fill="#404040"/>
<defs>
<clipPath id="clip0_101_12724">
<rect width="30" height="20" fill="white" transform="translate(0 7)"/>
</clipPath>
</defs>
</svg>
